<svg xmlns="http://www.w3.org/2000/svg" xmlns:xlink="http://www.w3.org/1999/xlink" width="500" zoomAndPan="magnify" viewBox="0 0 375 374.999991" height="500" preserveAspectRatio="xMidYMid meet" version="1.0"><defs><g/><clipPath id="c296187542"><path d="M 141.957031 165 L 232.707031 165 L 232.707031 203 L 141.957031 203 Z M 141.957031 165 " clip-rule="nonzero"/></clipPath><clipPath id="cf0bf44e5b"><path d="M 192 109.253906 L 214 109.253906 L 214 165 L 192 165 Z M 192 109.253906 " clip-rule="nonzero"/></clipPath></defs><rect x="-37.5" width="450" fill="#ffffff" y="-37.499999" height="449.999989" fill-opacity="1"/><rect x="-37.5" width="450" fill="#afb3ff" y="-37.499999" height="449.999989" fill-opacity="1"/><path fill="#000000" d="M 153.257812 190.585938 C 154.601562 190.765625 155.769531 189.773438 155.949219 188.515625 C 156.128906 187.164062 155.140625 185.996094 153.886719 185.816406 C 152.539062 185.636719 151.375 186.625 151.195312 187.886719 C 151.015625 189.144531 151.914062 190.40625 153.257812 190.585938 Z M 153.257812 190.585938 " fill-opacity="1" fill-rule="nonzero"/><g clip-path="url(#c296187542)"><path fill="#000000" d="M 146.800781 196.074219 C 147.699219 197.960938 149.851562 198.859375 151.734375 198.140625 L 163.300781 193.914062 C 165.453125 193.101562 167.695312 193.101562 169.847656 193.914062 L 193.878906 202.730469 C 194.148438 202.820312 194.417969 202.910156 194.6875 202.910156 C 195.046875 202.910156 195.492188 203 196.121094 203 C 198.273438 203 202.039062 202.460938 205.449219 199.132812 L 231.09375 174.03125 C 232.976562 172.140625 233.246094 169.171875 231.632812 167.105469 C 230.824219 166.023438 229.839844 165.484375 228.492188 165.214844 C 225.894531 164.675781 223.203125 165.304688 220.871094 166.742188 C 216.027344 169.894531 208.316406 174.839844 204.28125 177.449219 L 204.011719 177.628906 C 203.296875 178.078125 202.757812 178.890625 202.667969 179.699219 C 202.578125 180.507812 202.847656 181.40625 203.476562 182.039062 C 204.730469 183.386719 205.894531 186.085938 203.742188 188.425781 C 202.488281 189.773438 200.335938 190.316406 198.363281 189.773438 L 185.179688 185.726562 C 185.003906 185.636719 184.824219 185.546875 184.734375 185.367188 C 184.644531 185.1875 184.644531 185.007812 184.734375 184.828125 C 184.824219 184.46875 185.269531 184.285156 185.628906 184.375 L 198.09375 188.695312 C 199.976562 189.324219 202.039062 188.785156 203.207031 187.347656 C 203.832031 186.535156 205 184.46875 202.398438 181.949219 C 201.949219 181.5 201.324219 181.136719 200.695312 180.867188 L 176.753906 172.230469 C 176.574219 172.140625 171.371094 170.523438 166.082031 172.589844 C 162.316406 174.121094 150.027344 178.890625 144.46875 181.136719 C 143.484375 181.5 142.675781 182.308594 142.226562 183.386719 C 141.777344 184.375 141.867188 185.546875 142.316406 186.535156 Z M 223.203125 167.914062 C 224.816406 167.195312 226.429688 166.925781 228.136719 167.285156 C 229.03125 167.464844 229.570312 167.734375 230.019531 168.363281 C 231.003906 169.621094 230.824219 171.332031 229.660156 172.5 L 228.492188 173.582031 C 226.519531 173.492188 225.085938 172.953125 224.191406 171.871094 C 223.113281 170.523438 223.113281 168.8125 223.203125 167.914062 Z M 166.886719 174.570312 C 171.460938 172.773438 176.125 174.210938 176.125 174.210938 L 200.066406 182.847656 C 200.425781 182.9375 200.785156 183.207031 200.964844 183.386719 C 202.398438 184.828125 201.859375 185.546875 201.589844 185.90625 C 200.964844 186.625 199.886719 186.894531 198.8125 186.535156 L 186.347656 182.21875 C 184.914062 181.679688 183.296875 182.488281 182.761719 183.925781 C 182.492188 184.648438 182.582031 185.457031 182.851562 186.175781 C 183.207031 186.894531 183.835938 187.4375 184.554688 187.617188 L 197.824219 191.574219 C 200.515625 192.382812 203.476562 191.664062 205.359375 189.683594 C 208.136719 186.714844 207.332031 182.757812 205.089844 180.417969 C 204.910156 180.238281 204.820312 180.058594 204.820312 179.789062 C 204.820312 179.609375 205 179.429688 205.179688 179.25 L 205.449219 179.070312 C 209.214844 176.640625 216.117188 172.140625 221.050781 168.992188 C 221.140625 170.253906 221.5 171.78125 222.484375 173.042969 C 223.472656 174.210938 224.816406 174.929688 226.519531 175.378906 L 203.921875 197.601562 C 200.246094 201.199219 196.121094 200.929688 194.957031 200.839844 C 194.867188 200.839844 194.6875 200.75 194.597656 200.75 L 170.566406 191.933594 C 169.398438 191.484375 168.234375 191.304688 166.976562 191.304688 L 161.597656 176.730469 C 163.839844 175.832031 165.722656 175.019531 166.886719 174.570312 Z M 144.199219 184.105469 C 144.378906 183.65625 144.738281 183.296875 145.277344 183.117188 C 148.683594 181.769531 154.691406 179.429688 159.625 177.449219 L 164.824219 191.304688 C 164.109375 191.394531 163.300781 191.574219 162.582031 191.84375 L 151.015625 196.074219 C 150.117188 196.433594 149.132812 195.980469 148.683594 195.082031 L 144.199219 185.457031 C 144.019531 185.097656 144.019531 184.648438 144.199219 184.105469 Z M 144.199219 184.105469 " fill-opacity="1" fill-rule="nonzero"/></g><path fill="#000000" d="M 175.675781 164.945312 C 180.789062 164.945312 185.898438 163.414062 185.898438 160.535156 L 185.898438 133.90625 C 185.898438 131.027344 180.699219 129.5 175.675781 129.5 C 170.566406 129.5 165.453125 131.027344 165.453125 133.90625 L 165.453125 160.714844 C 165.453125 160.804688 165.453125 160.894531 165.453125 160.984375 C 165.8125 163.683594 171.011719 164.945312 175.675781 164.945312 Z M 175.675781 131.476562 C 180.964844 131.476562 183.835938 133.097656 183.835938 133.726562 C 183.835938 134.355469 180.964844 135.976562 175.675781 135.976562 C 170.386719 135.976562 167.515625 134.355469 167.515625 133.726562 C 167.515625 133.097656 170.476562 131.476562 175.675781 131.476562 Z M 167.605469 136.515625 C 169.578125 137.59375 172.628906 138.136719 175.765625 138.136719 C 178.816406 138.136719 181.953125 137.59375 183.925781 136.515625 L 183.925781 140.382812 C 183.925781 141.015625 181.054688 142.632812 175.765625 142.632812 C 170.476562 142.632812 167.605469 141.015625 167.605469 140.382812 Z M 167.605469 143.261719 C 169.578125 144.34375 172.628906 144.882812 175.765625 144.882812 C 178.816406 144.882812 181.953125 144.34375 183.925781 143.261719 L 183.925781 147.132812 C 183.925781 147.761719 181.054688 149.378906 175.765625 149.378906 C 170.476562 149.378906 167.605469 147.761719 167.605469 147.132812 Z M 167.605469 149.921875 C 169.578125 151 172.628906 151.539062 175.765625 151.539062 C 178.816406 151.539062 181.953125 151 183.925781 149.921875 L 183.925781 153.789062 C 183.925781 154.417969 181.054688 156.039062 175.765625 156.039062 C 170.476562 156.039062 167.605469 154.417969 167.605469 153.789062 Z M 167.605469 156.578125 C 169.578125 157.65625 172.628906 158.199219 175.765625 158.199219 C 178.816406 158.199219 181.953125 157.65625 183.925781 156.578125 L 183.925781 160.445312 C 183.925781 161.074219 181.054688 162.695312 175.765625 162.695312 C 170.566406 162.695312 167.695312 161.074219 167.695312 160.445312 L 167.695312 156.578125 Z M 167.605469 156.578125 " fill-opacity="1" fill-rule="nonzero"/><g clip-path="url(#cf0bf44e5b)"><path fill="#000000" d="M 203.207031 164.945312 C 208.046875 164.945312 213.339844 163.59375 213.429688 160.535156 L 213.429688 113.933594 C 213.429688 110.785156 208.316406 109.257812 203.207031 109.257812 C 198.09375 109.257812 192.984375 110.785156 192.984375 113.664062 L 192.984375 160.535156 C 192.984375 163.59375 198.273438 164.945312 203.207031 164.945312 Z M 203.207031 111.414062 C 208.496094 111.414062 211.367188 113.035156 211.367188 113.664062 C 211.367188 114.292969 208.496094 115.914062 203.207031 115.914062 C 197.914062 115.914062 195.046875 114.292969 195.046875 113.664062 C 195.046875 113.035156 197.914062 111.414062 203.207031 111.414062 Z M 195.046875 116.453125 C 197.019531 117.535156 200.066406 118.074219 203.207031 118.074219 C 206.253906 118.074219 209.394531 117.535156 211.367188 116.453125 L 211.367188 120.324219 C 211.367188 120.953125 208.496094 122.570312 203.207031 122.570312 C 197.914062 122.570312 195.046875 120.953125 195.046875 120.324219 Z M 195.046875 123.109375 C 197.019531 124.191406 200.066406 124.730469 203.207031 124.730469 C 206.253906 124.730469 209.394531 124.191406 211.367188 123.109375 L 211.367188 126.980469 C 211.367188 127.609375 208.496094 129.230469 203.207031 129.230469 C 197.914062 129.230469 195.046875 127.609375 195.046875 126.980469 Z M 195.046875 129.859375 C 197.019531 130.9375 200.066406 131.476562 203.207031 131.476562 C 206.253906 131.476562 209.394531 130.9375 211.367188 129.859375 L 211.367188 133.726562 C 211.367188 134.355469 208.496094 135.976562 203.207031 135.976562 C 197.914062 135.976562 195.046875 134.355469 195.046875 133.726562 Z M 195.046875 136.515625 C 197.019531 137.59375 200.066406 138.136719 203.207031 138.136719 C 206.253906 138.136719 209.394531 137.59375 211.367188 136.515625 L 211.367188 140.382812 C 211.367188 141.015625 208.496094 142.632812 203.207031 142.632812 C 197.914062 142.632812 195.046875 141.015625 195.046875 140.382812 Z M 195.046875 143.261719 C 197.019531 144.34375 200.066406 144.882812 203.207031 144.882812 C 206.253906 144.882812 209.304688 144.34375 211.367188 143.261719 L 211.367188 147.132812 C 211.367188 147.761719 208.496094 149.378906 203.207031 149.378906 C 197.914062 149.378906 195.046875 147.761719 195.046875 147.132812 Z M 195.046875 149.921875 C 197.019531 151 200.066406 151.539062 203.207031 151.539062 C 206.253906 151.539062 209.304688 151 211.277344 149.921875 L 211.277344 153.878906 C 211.277344 154.507812 208.40625 156.128906 203.207031 156.128906 C 197.914062 156.128906 195.046875 154.507812 195.046875 153.878906 Z M 195.046875 156.578125 C 197.019531 157.65625 200.066406 158.199219 203.207031 158.199219 C 206.253906 158.199219 209.304688 157.65625 211.277344 156.578125 L 211.277344 160.445312 C 211.277344 161.167969 208.496094 162.695312 203.117188 162.695312 C 197.824219 162.695312 195.046875 161.074219 194.957031 160.445312 L 194.957031 156.578125 Z M 195.046875 156.578125 " fill-opacity="1" fill-rule="nonzero"/></g><g fill="#000000" fill-opacity="1"><g transform="translate(97.492433, 241.015897)"><g><path d="M 7.5 -18.875 L 7.5 -11 L 8.5625 -11 C 9.164062 -11 9.671875 -11.164062 10.078125 -11.5 C 10.492188 -11.84375 10.71875 -12.460938 10.75 -13.359375 L 11.09375 -13.359375 L 11.09375 -8.28125 L 10.75 -8.28125 C 10.71875 -9.175781 10.492188 -9.789062 10.078125 -10.125 C 9.671875 -10.46875 9.164062 -10.640625 8.5625 -10.640625 L 7.5 -10.640625 L 7.5 -0.359375 L 9.515625 -0.359375 C 10.335938 -0.359375 11.113281 -0.476562 11.84375 -0.71875 C 12.570312 -0.96875 13.207031 -1.367188 13.75 -1.921875 C 14.289062 -2.472656 14.71875 -3.179688 15.03125 -4.046875 C 15.351562 -4.910156 15.523438 -5.96875 15.546875 -7.21875 L 15.90625 -7.21875 L 15.90625 0 L 0.28125 0 L 0.28125 -0.359375 L 2.6875 -0.359375 L 2.6875 -18.875 L 0.28125 -18.875 L 0.28125 -19.234375 L 15.90625 -19.234375 L 15.90625 -12.015625 L 15.546875 -12.015625 C 15.523438 -13.265625 15.351562 -14.320312 15.03125 -15.1875 C 14.71875 -16.050781 14.289062 -16.757812 13.75 -17.3125 C 13.207031 -17.863281 12.570312 -18.257812 11.84375 -18.5 C 11.113281 -18.75 10.335938 -18.875 9.515625 -18.875 Z M 7.5 -18.875 "/></g></g></g><g fill="#000000" fill-opacity="1"><g transform="translate(121.317955, 241.015897)"><g><path d="M 19.765625 -0.359375 L 19.765625 0 L 10.140625 0 L 10.140625 -0.359375 L 12.234375 -0.359375 L 8.34375 -7.640625 L 5.203125 -2.265625 C 5.078125 -2.054688 5.019531 -1.835938 5.03125 -1.609375 C 5.039062 -1.390625 5.09375 -1.1875 5.1875 -1 C 5.289062 -0.820312 5.441406 -0.671875 5.640625 -0.546875 C 5.835938 -0.421875 6.054688 -0.359375 6.296875 -0.359375 L 6.296875 0 L 1.234375 0 L 1.234375 -0.359375 C 1.992188 -0.359375 2.703125 -0.546875 3.359375 -0.921875 C 4.015625 -1.296875 4.53125 -1.8125 4.90625 -2.46875 L 8.140625 -8.015625 L 2.359375 -18.875 L 0.28125 -18.875 L 0.28125 -19.234375 L 9.90625 -19.234375 L 9.90625 -18.875 L 7.8125 -18.875 L 11.703125 -11.59375 L 14.84375 -16.96875 C 14.96875 -17.175781 15.023438 -17.390625 15.015625 -17.609375 C 15.015625 -17.835938 14.960938 -18.046875 14.859375 -18.234375 C 14.753906 -18.421875 14.601562 -18.570312 14.40625 -18.6875 C 14.207031 -18.8125 13.988281 -18.875 13.75 -18.875 L 13.75 -19.234375 L 18.78125 -19.234375 L 18.78125 -18.875 C 18.039062 -18.875 17.34375 -18.691406 16.6875 -18.328125 C 16.03125 -17.960938 15.515625 -17.453125 15.140625 -16.796875 L 11.90625 -11.234375 L 17.703125 -0.359375 Z M 19.765625 -0.359375 "/></g></g></g><g fill="#000000" fill-opacity="1"><g transform="translate(147.579145, 241.015897)"><g><path d="M 12.828125 -19.234375 C 13.421875 -19.234375 13.972656 -19.117188 14.484375 -18.890625 C 15.003906 -18.671875 15.457031 -18.363281 15.84375 -17.96875 C 16.238281 -17.582031 16.546875 -17.128906 16.765625 -16.609375 C 16.992188 -16.097656 17.109375 -15.546875 17.109375 -14.953125 C 17.109375 -14.359375 16.992188 -13.796875 16.765625 -13.265625 C 16.546875 -12.742188 16.238281 -12.285156 15.84375 -11.890625 C 15.457031 -11.503906 15.003906 -11.195312 14.484375 -10.96875 C 13.972656 -10.75 13.421875 -10.640625 12.828125 -10.640625 L 7.5 -10.640625 L 7.5 -0.359375 L 9.90625 -0.359375 L 9.90625 0 L 0.28125 0 L 0.28125 -0.359375 L 2.6875 -0.359375 L 2.6875 -18.875 L 0.28125 -18.875 L 0.28125 -19.234375 Z M 8.375 -11 C 8.914062 -11 9.421875 -11.101562 9.890625 -11.3125 C 10.367188 -11.519531 10.785156 -11.800781 11.140625 -12.15625 C 11.492188 -12.507812 11.773438 -12.925781 11.984375 -13.40625 C 12.191406 -13.894531 12.296875 -14.410156 12.296875 -14.953125 C 12.296875 -15.492188 12.191406 -16 11.984375 -16.46875 C 11.773438 -16.945312 11.492188 -17.363281 11.140625 -17.71875 C 10.785156 -18.070312 10.367188 -18.351562 9.890625 -18.5625 C 9.421875 -18.769531 8.914062 -18.875 8.375 -18.875 L 7.5 -18.875 L 7.5 -11 Z M 8.375 -11 "/></g></g></g><g fill="#000000" fill-opacity="1"><g transform="translate(171.768624, 241.015897)"><g><path d="M 7.5 -18.875 L 7.5 -11 L 8.5625 -11 C 9.164062 -11 9.671875 -11.164062 10.078125 -11.5 C 10.492188 -11.84375 10.71875 -12.460938 10.75 -13.359375 L 11.09375 -13.359375 L 11.09375 -8.28125 L 10.75 -8.28125 C 10.71875 -9.175781 10.492188 -9.789062 10.078125 -10.125 C 9.671875 -10.46875 9.164062 -10.640625 8.5625 -10.640625 L 7.5 -10.640625 L 7.5 -0.359375 L 9.515625 -0.359375 C 10.335938 -0.359375 11.113281 -0.476562 11.84375 -0.71875 C 12.570312 -0.96875 13.207031 -1.367188 13.75 -1.921875 C 14.289062 -2.472656 14.71875 -3.179688 15.03125 -4.046875 C 15.351562 -4.910156 15.523438 -5.96875 15.546875 -7.21875 L 15.90625 -7.21875 L 15.90625 0 L 0.28125 0 L 0.28125 -0.359375 L 2.6875 -0.359375 L 2.6875 -18.875 L 0.28125 -18.875 L 0.28125 -19.234375 L 15.90625 -19.234375 L 15.90625 -12.015625 L 15.546875 -12.015625 C 15.523438 -13.265625 15.351562 -14.320312 15.03125 -15.1875 C 14.71875 -16.050781 14.289062 -16.757812 13.75 -17.3125 C 13.207031 -17.863281 12.570312 -18.257812 11.84375 -18.5 C 11.113281 -18.75 10.335938 -18.875 9.515625 -18.875 Z M 7.5 -18.875 "/></g></g></g><g fill="#000000" fill-opacity="1"><g transform="translate(195.594146, 241.015897)"><g><path d="M 17.109375 -18.875 C 16.210938 -18.851562 15.597656 -18.632812 15.265625 -18.21875 C 14.941406 -17.8125 14.78125 -17.3125 14.78125 -16.71875 L 14.78125 0 L 14.421875 0 L 3 -18.3125 L 3 -2.46875 C 3 -1.882812 3.164062 -1.390625 3.5 -0.984375 C 3.832031 -0.585938 4.4375 -0.378906 5.3125 -0.359375 L 5.3125 0 L 0.28125 0 L 0.28125 -0.359375 C 1.175781 -0.378906 1.789062 -0.59375 2.125 -1 C 2.457031 -1.414062 2.625 -1.921875 2.625 -2.515625 L 2.625 -18.875 L 0.28125 -18.875 L 0.28125 -19.234375 L 8.0625 -19.234375 L 14.421875 -9.078125 L 14.421875 -16.765625 C 14.398438 -17.347656 14.222656 -17.835938 13.890625 -18.234375 C 13.566406 -18.640625 12.957031 -18.851562 12.0625 -18.875 L 12.0625 -19.234375 L 17.109375 -19.234375 Z M 17.109375 -18.875 "/></g></g></g><g fill="#000000" fill-opacity="1"><g transform="translate(219.195696, 241.015897)"><g><path d="M 14.5625 -4.953125 C 14.5625 -3.984375 14.367188 -3.160156 13.984375 -2.484375 C 13.597656 -1.816406 13.082031 -1.269531 12.4375 -0.84375 C 11.800781 -0.425781 11.070312 -0.125 10.25 0.0625 C 9.425781 0.257812 8.578125 0.359375 7.703125 0.359375 C 5.984375 0.359375 4.460938 -0.0390625 3.140625 -0.84375 C 2.953125 -0.9375 2.78125 -0.984375 2.625 -0.984375 C 2.363281 -0.984375 2.140625 -0.890625 1.953125 -0.703125 C 1.773438 -0.515625 1.6875 -0.28125 1.6875 0 L 1.3125 0 L 1.3125 -7.21875 L 1.6875 -7.21875 C 1.695312 -6.175781 1.828125 -5.21875 2.078125 -4.34375 C 2.335938 -3.46875 2.71875 -2.707031 3.21875 -2.0625 C 3.71875 -1.414062 4.335938 -0.910156 5.078125 -0.546875 C 5.816406 -0.179688 6.691406 0 7.703125 0 C 8.203125 0 8.671875 -0.0546875 9.109375 -0.171875 C 9.546875 -0.285156 9.925781 -0.460938 10.25 -0.703125 C 10.582031 -0.941406 10.84375 -1.238281 11.03125 -1.59375 C 11.21875 -1.945312 11.3125 -2.378906 11.3125 -2.890625 C 11.3125 -3.609375 11.050781 -4.242188 10.53125 -4.796875 C 10.019531 -5.347656 9.375 -5.863281 8.59375 -6.34375 C 7.8125 -6.832031 6.972656 -7.320312 6.078125 -7.8125 C 5.179688 -8.300781 4.335938 -8.847656 3.546875 -9.453125 C 2.765625 -10.054688 2.117188 -10.742188 1.609375 -11.515625 C 1.097656 -12.296875 0.84375 -13.21875 0.84375 -14.28125 C 0.84375 -15.25 1.03125 -16.066406 1.40625 -16.734375 C 1.789062 -17.410156 2.304688 -17.957031 2.953125 -18.375 C 3.597656 -18.800781 4.332031 -19.109375 5.15625 -19.296875 C 5.976562 -19.492188 6.828125 -19.59375 7.703125 -19.59375 C 9.421875 -19.59375 10.941406 -19.191406 12.265625 -18.390625 C 12.453125 -18.296875 12.617188 -18.25 12.765625 -18.25 C 13.023438 -18.25 13.25 -18.34375 13.4375 -18.53125 C 13.625 -18.71875 13.71875 -18.953125 13.71875 -19.234375 L 14.078125 -19.234375 L 14.078125 -12.015625 L 13.71875 -12.015625 C 13.695312 -13.035156 13.5625 -13.988281 13.3125 -14.875 C 13.0625 -15.769531 12.6875 -16.535156 12.1875 -17.171875 C 11.695312 -17.816406 11.078125 -18.320312 10.328125 -18.6875 C 9.585938 -19.050781 8.710938 -19.234375 7.703125 -19.234375 C 7.191406 -19.234375 6.71875 -19.175781 6.28125 -19.0625 C 5.84375 -18.957031 5.457031 -18.78125 5.125 -18.53125 C 4.800781 -18.289062 4.546875 -17.992188 4.359375 -17.640625 C 4.179688 -17.285156 4.09375 -16.859375 4.09375 -16.359375 C 4.09375 -15.628906 4.347656 -14.988281 4.859375 -14.4375 C 5.367188 -13.882812 6.015625 -13.363281 6.796875 -12.875 C 7.585938 -12.394531 8.429688 -11.910156 9.328125 -11.421875 C 10.222656 -10.941406 11.0625 -10.394531 11.84375 -9.78125 C 12.625 -9.175781 13.269531 -8.484375 13.78125 -7.703125 C 14.300781 -6.929688 14.5625 -6.015625 14.5625 -4.953125 Z M 14.5625 -4.953125 "/></g></g></g><g fill="#000000" fill-opacity="1"><g transform="translate(240.837514, 241.015897)"><g><path d="M 7.5 -18.875 L 7.5 -0.359375 L 9.90625 -0.359375 L 9.90625 0 L 0.28125 0 L 0.28125 -0.359375 L 2.6875 -0.359375 L 2.6875 -18.875 L 0.28125 -18.875 L 0.28125 -19.234375 L 9.90625 -19.234375 L 9.90625 -18.875 Z M 7.5 -18.875 "/></g></g></g><g fill="#000000" fill-opacity="1"><g transform="translate(257.244048, 241.015897)"><g><path d="M 9.859375 -19.59375 C 11.347656 -19.59375 12.65625 -19.304688 13.78125 -18.734375 C 14.914062 -18.171875 15.859375 -17.414062 16.609375 -16.46875 C 17.367188 -15.53125 17.9375 -14.460938 18.3125 -13.265625 C 18.6875 -12.078125 18.875 -10.859375 18.875 -9.609375 C 18.875 -8.367188 18.6875 -7.148438 18.3125 -5.953125 C 17.9375 -4.765625 17.367188 -3.695312 16.609375 -2.75 C 15.859375 -1.8125 14.921875 -1.054688 13.796875 -0.484375 C 12.679688 0.078125 11.367188 0.359375 9.859375 0.359375 C 8.359375 0.359375 7.046875 0.078125 5.921875 -0.484375 C 4.796875 -1.054688 3.851562 -1.8125 3.09375 -2.75 C 2.332031 -3.695312 1.765625 -4.765625 1.390625 -5.953125 C 1.023438 -7.148438 0.84375 -8.367188 0.84375 -9.609375 C 0.84375 -10.859375 1.023438 -12.078125 1.390625 -13.265625 C 1.765625 -14.460938 2.332031 -15.53125 3.09375 -16.46875 C 3.851562 -17.414062 4.789062 -18.171875 5.90625 -18.734375 C 7.03125 -19.304688 8.347656 -19.59375 9.859375 -19.59375 Z M 13.46875 -15.625 C 13.46875 -16.125 13.375 -16.59375 13.1875 -17.03125 C 13 -17.476562 12.738281 -17.863281 12.40625 -18.1875 C 12.082031 -18.507812 11.703125 -18.765625 11.265625 -18.953125 C 10.828125 -19.140625 10.359375 -19.234375 9.859375 -19.234375 C 9.347656 -19.234375 8.875 -19.140625 8.4375 -18.953125 C 8 -18.765625 7.613281 -18.507812 7.28125 -18.1875 C 6.957031 -17.863281 6.703125 -17.476562 6.515625 -17.03125 C 6.335938 -16.59375 6.25 -16.125 6.25 -15.625 L 6.25 -3.609375 C 6.25 -3.109375 6.335938 -2.640625 6.515625 -2.203125 C 6.703125 -1.765625 6.957031 -1.378906 7.28125 -1.046875 C 7.613281 -0.722656 8 -0.46875 8.4375 -0.28125 C 8.875 -0.09375 9.347656 0 9.859375 0 C 10.359375 0 10.828125 -0.09375 11.265625 -0.28125 C 11.703125 -0.46875 12.082031 -0.722656 12.40625 -1.046875 C 12.738281 -1.378906 13 -1.765625 13.1875 -2.203125 C 13.375 -2.640625 13.46875 -3.109375 13.46875 -3.609375 Z M 13.46875 -15.625 "/></g></g></g><g fill="#000000" fill-opacity="1"><g transform="translate(124.964544, 260.438928)"><g><path d="M 4.875 -1.125 L 4.953125 -1.015625 L 4.859375 0 L 0.78125 0 L 0.859375 -1.9375 L 0.78125 -6.5 L 4.90625 -6.5 L 4.984375 -6.390625 L 4.890625 -5.375 L 3.328125 -5.421875 L 2.15625 -5.40625 L 2.125 -3.84375 L 3.25 -3.828125 L 4.3125 -3.859375 L 4.390625 -3.75 L 4.296875 -2.734375 L 3.15625 -2.765625 L 2.109375 -2.75 L 2.09375 -2.0625 L 2.125 -1.078125 L 3.265625 -1.0625 Z M 4.875 -1.125 "/></g></g></g><g fill="#000000" fill-opacity="1"><g transform="translate(133.310865, 260.438928)"><g><path d="M 4.015625 -3.40625 L 6.109375 0 L 4.46875 0 L 4.171875 -0.640625 L 3.09375 -2.328125 L 1.921875 -0.578125 L 1.625 0 L 0.21875 0 L 2.296875 -3.203125 L 0.234375 -6.5 L 1.875 -6.5 L 2.1875 -5.84375 L 3.203125 -4.265625 L 4.265625 -5.890625 L 4.53125 -6.5 L 5.984375 -6.5 Z M 4.015625 -3.40625 "/></g></g></g><g fill="#000000" fill-opacity="1"><g transform="translate(142.807461, 260.438928)"><g><path d="M 3.28125 -6.515625 C 3.957031 -6.515625 4.476562 -6.34375 4.84375 -6 C 5.21875 -5.65625 5.40625 -5.160156 5.40625 -4.515625 C 5.40625 -4.023438 5.296875 -3.597656 5.078125 -3.234375 C 4.859375 -2.867188 4.546875 -2.582031 4.140625 -2.375 C 3.742188 -2.175781 3.28125 -2.078125 2.75 -2.078125 L 2.09375 -2.078125 L 2.09375 -2.0625 L 2.15625 0 L 0.78125 0 L 0.859375 -1.9375 L 0.78125 -6.5 Z M 3.046875 -3.078125 C 3.671875 -3.253906 3.984375 -3.695312 3.984375 -4.40625 C 3.984375 -4.769531 3.890625 -5.039062 3.703125 -5.21875 C 3.515625 -5.394531 3.226562 -5.488281 2.84375 -5.5 L 2.15625 -5.453125 L 2.125 -3.125 Z M 3.046875 -3.078125 "/></g></g></g><g fill="#000000" fill-opacity="1"><g transform="translate(151.597747, 260.438928)"><g><path d="M 4.875 -1.125 L 4.953125 -1.015625 L 4.859375 0 L 0.78125 0 L 0.859375 -1.9375 L 0.78125 -6.5 L 4.90625 -6.5 L 4.984375 -6.390625 L 4.890625 -5.375 L 3.328125 -5.421875 L 2.15625 -5.40625 L 2.125 -3.84375 L 3.25 -3.828125 L 4.3125 -3.859375 L 4.390625 -3.75 L 4.296875 -2.734375 L 3.15625 -2.765625 L 2.109375 -2.75 L 2.09375 -2.0625 L 2.125 -1.078125 L 3.265625 -1.0625 Z M 4.875 -1.125 "/></g></g></g><g fill="#000000" fill-opacity="1"><g transform="translate(159.94407, 260.438928)"><g><path d="M 6.15625 -2.015625 L 6.203125 0 L 4.734375 0 L 2.078125 -4.40625 L 2 -4.40625 L 1.984375 -2.234375 L 2.03125 0 L 0.78125 0 L 0.859375 -1.921875 L 0.796875 -6.5 L 2.265625 -6.5 L 4.921875 -2.09375 L 5 -2.09375 L 4.96875 -6.4375 L 6.234375 -6.515625 Z M 6.15625 -2.015625 "/></g></g></g><g fill="#000000" fill-opacity="1"><g transform="translate(170.167152, 260.438928)"><g><path d="M 2.875 -6.578125 C 3.425781 -6.578125 3.972656 -6.46875 4.515625 -6.25 L 4.296875 -5.0625 L 4.09375 -4.984375 C 3.863281 -5.148438 3.625 -5.28125 3.375 -5.375 C 3.132812 -5.46875 2.914062 -5.515625 2.71875 -5.515625 C 2.445312 -5.515625 2.226562 -5.441406 2.0625 -5.296875 C 1.90625 -5.148438 1.828125 -4.984375 1.828125 -4.796875 C 1.828125 -4.597656 1.914062 -4.429688 2.09375 -4.296875 C 2.269531 -4.160156 2.550781 -4.003906 2.9375 -3.828125 C 3.3125 -3.660156 3.613281 -3.503906 3.84375 -3.359375 C 4.070312 -3.210938 4.269531 -3.019531 4.4375 -2.78125 C 4.601562 -2.550781 4.6875 -2.265625 4.6875 -1.921875 C 4.6875 -1.546875 4.582031 -1.203125 4.375 -0.890625 C 4.175781 -0.585938 3.890625 -0.347656 3.515625 -0.171875 C 3.148438 0.00390625 2.722656 0.09375 2.234375 0.09375 C 1.597656 0.09375 0.957031 -0.046875 0.3125 -0.328125 L 0.5 -1.59375 L 0.65625 -1.671875 C 0.925781 -1.441406 1.21875 -1.265625 1.53125 -1.140625 C 1.851562 -1.015625 2.140625 -0.953125 2.390625 -0.953125 C 2.691406 -0.953125 2.921875 -1.023438 3.078125 -1.171875 C 3.242188 -1.316406 3.328125 -1.488281 3.328125 -1.6875 C 3.328125 -1.90625 3.238281 -2.078125 3.0625 -2.203125 C 2.882812 -2.335938 2.597656 -2.5 2.203125 -2.6875 C 1.835938 -2.851562 1.539062 -3.003906 1.3125 -3.140625 C 1.082031 -3.285156 0.882812 -3.472656 0.71875 -3.703125 C 0.5625 -3.941406 0.484375 -4.234375 0.484375 -4.578125 C 0.484375 -4.953125 0.582031 -5.289062 0.78125 -5.59375 C 0.988281 -5.90625 1.273438 -6.144531 1.640625 -6.3125 C 2.003906 -6.488281 2.414062 -6.578125 2.875 -6.578125 Z M 2.875 -6.578125 "/></g></g></g><g fill="#000000" fill-opacity="1"><g transform="translate(178.402485, 260.438928)"><g><path d="M 4.875 -1.125 L 4.953125 -1.015625 L 4.859375 0 L 0.78125 0 L 0.859375 -1.9375 L 0.78125 -6.5 L 4.90625 -6.5 L 4.984375 -6.390625 L 4.890625 -5.375 L 3.328125 -5.421875 L 2.15625 -5.40625 L 2.125 -3.84375 L 3.25 -3.828125 L 4.3125 -3.859375 L 4.390625 -3.75 L 4.296875 -2.734375 L 3.15625 -2.765625 L 2.109375 -2.75 L 2.09375 -2.0625 L 2.125 -1.078125 L 3.265625 -1.0625 Z M 4.875 -1.125 "/></g></g></g><g fill="#000000" fill-opacity="1"><g transform="translate(186.748807, 260.438928)"><g/></g></g><g fill="#000000" fill-opacity="1"><g transform="translate(191.482868, 260.438928)"><g><path d="M 4.9375 -6.390625 L 4.859375 -5.375 L 3.640625 -5.4375 L 3.234375 -5.4375 L 3.171875 -2.0625 L 3.234375 0 L 1.875 0 L 1.9375 -1.9375 L 1.890625 -5.4375 L 1.484375 -5.4375 L 0.25 -5.375 L 0.15625 -5.484375 L 0.25 -6.5 L 4.859375 -6.5 Z M 4.9375 -6.390625 "/></g></g></g><g fill="#000000" fill-opacity="1"><g transform="translate(199.768649, 260.438928)"><g><path d="M 4.203125 -2.578125 C 4.722656 -1.742188 5.242188 -0.992188 5.765625 -0.328125 L 5.75 -0.171875 C 5.3125 -0.015625 4.863281 0.0703125 4.40625 0.09375 L 4.265625 -0.015625 C 3.773438 -0.847656 3.378906 -1.570312 3.078125 -2.1875 L 2.09375 -2.1875 L 2.09375 -2.0625 L 2.15625 0 L 0.78125 0 L 0.859375 -1.9375 L 0.78125 -6.5 L 3.28125 -6.515625 C 3.957031 -6.515625 4.476562 -6.347656 4.84375 -6.015625 C 5.21875 -5.679688 5.40625 -5.203125 5.40625 -4.578125 C 5.40625 -4.160156 5.300781 -3.78125 5.09375 -3.4375 C 4.882812 -3.09375 4.585938 -2.804688 4.203125 -2.578125 Z M 2.125 -3.25 L 3.125 -3.203125 C 3.695312 -3.398438 3.984375 -3.816406 3.984375 -4.453125 C 3.984375 -4.796875 3.890625 -5.050781 3.703125 -5.21875 C 3.515625 -5.394531 3.226562 -5.488281 2.84375 -5.5 L 2.15625 -5.453125 Z M 2.125 -3.25 "/></g></g></g><g fill="#000000" fill-opacity="1"><g transform="translate(208.932265, 260.438928)"><g><path d="M 5.890625 0 L 4.5 0 L 4.34375 -0.84375 L 4.171875 -1.453125 L 2.890625 -1.484375 L 1.78125 -1.453125 L 1.609375 -0.921875 L 1.4375 0 L 0.078125 0 L 2.28125 -6.5 L 3.90625 -6.5 Z M 3.875 -2.515625 L 3.109375 -5.21875 L 3.015625 -5.21875 L 2.125 -2.515625 L 3 -2.5 Z M 3.875 -2.515625 "/></g></g></g><g fill="#000000" fill-opacity="1"><g transform="translate(218.196786, 260.438928)"><g><path d="M 3.390625 -6.578125 C 4.023438 -6.578125 4.59375 -6.445312 5.09375 -6.1875 L 4.859375 -5.046875 L 4.75 -5 C 4.539062 -5.132812 4.316406 -5.242188 4.078125 -5.328125 C 3.835938 -5.410156 3.585938 -5.453125 3.328125 -5.453125 C 2.253906 -5.453125 1.71875 -4.75 1.71875 -3.34375 C 1.71875 -2.582031 1.859375 -2.007812 2.140625 -1.625 C 2.421875 -1.25 2.832031 -1.0625 3.375 -1.0625 C 3.625 -1.0625 3.878906 -1.097656 4.140625 -1.171875 C 4.410156 -1.253906 4.648438 -1.363281 4.859375 -1.5 L 4.984375 -1.421875 L 4.875 -0.265625 C 4.363281 -0.0234375 3.828125 0.09375 3.265625 0.09375 C 2.296875 0.09375 1.554688 -0.1875 1.046875 -0.75 C 0.535156 -1.320312 0.28125 -2.132812 0.28125 -3.1875 C 0.28125 -4.257812 0.550781 -5.09375 1.09375 -5.6875 C 1.632812 -6.28125 2.398438 -6.578125 3.390625 -6.578125 Z M 3.390625 -6.578125 "/></g></g></g><g fill="#000000" fill-opacity="1"><g transform="translate(226.623823, 260.438928)"><g><path d="M 3.5 -3.4375 C 4.21875 -2.425781 5.046875 -1.375 5.984375 -0.28125 L 5.96875 -0.125 C 5.59375 -0.03125 5.148438 0.0390625 4.640625 0.09375 L 4.46875 0.015625 C 3.59375 -1.148438 2.8125 -2.269531 2.125 -3.34375 L 2.09375 -2.0625 L 2.15625 0 L 0.78125 0 L 0.859375 -1.9375 L 0.78125 -6.5 L 2.171875 -6.5 L 2.125 -3.484375 L 3.953125 -5.875 L 4.3125 -6.5 L 5.796875 -6.5 Z M 3.5 -3.4375 "/></g></g></g><g fill="#000000" fill-opacity="1"><g transform="translate(235.726898, 260.438928)"><g><path d="M 4.875 -1.125 L 4.953125 -1.015625 L 4.859375 0 L 0.78125 0 L 0.859375 -1.9375 L 0.78125 -6.5 L 4.90625 -6.5 L 4.984375 -6.390625 L 4.890625 -5.375 L 3.328125 -5.421875 L 2.15625 -5.40625 L 2.125 -3.84375 L 3.25 -3.828125 L 4.3125 -3.859375 L 4.390625 -3.75 L 4.296875 -2.734375 L 3.15625 -2.765625 L 2.109375 -2.75 L 2.09375 -2.0625 L 2.125 -1.078125 L 3.265625 -1.0625 Z M 4.875 -1.125 "/></g></g></g><g fill="#000000" fill-opacity="1"><g transform="translate(244.073216, 260.438928)"><g><path d="M 4.203125 -2.578125 C 4.722656 -1.742188 5.242188 -0.992188 5.765625 -0.328125 L 5.75 -0.171875 C 5.3125 -0.015625 4.863281 0.0703125 4.40625 0.09375 L 4.265625 -0.015625 C 3.773438 -0.847656 3.378906 -1.570312 3.078125 -2.1875 L 2.09375 -2.1875 L 2.09375 -2.0625 L 2.15625 0 L 0.78125 0 L 0.859375 -1.9375 L 0.78125 -6.5 L 3.28125 -6.515625 C 3.957031 -6.515625 4.476562 -6.347656 4.84375 -6.015625 C 5.21875 -5.679688 5.40625 -5.203125 5.40625 -4.578125 C 5.40625 -4.160156 5.300781 -3.78125 5.09375 -3.4375 C 4.882812 -3.09375 4.585938 -2.804688 4.203125 -2.578125 Z M 2.125 -3.25 L 3.125 -3.203125 C 3.695312 -3.398438 3.984375 -3.816406 3.984375 -4.453125 C 3.984375 -4.796875 3.890625 -5.050781 3.703125 -5.21875 C 3.515625 -5.394531 3.226562 -5.488281 2.84375 -5.5 L 2.15625 -5.453125 Z M 2.125 -3.25 "/></g></g></g></svg>